<svg xmlns="http://www.w3.org/2000/svg" viewBox="0 0 32.56 35.8"><defs><style>.cls-1{fill:#ababab;}</style></defs><title>Asset 1</title><g id="Layer_2" data-name="Layer 2"><g id="PMS_1797C" data-name="PMS 1797C"><path class="cls-1" d="M24.32,31c-.55-1.64-1.13-3.13-1.43-3.86s-.46-1.13-.59-1.42h0a55.18,55.18,0,0,1,1.39,5.43,16.92,16.92,0,0,1,.35,3l1.45,1c0-.09,0-.17,0-.25C25.2,33.86,24.79,32.43,24.32,31Z"/><path class="cls-1" d="M7.22,31.63c.41-1,.93-2.06,1.42-3,.18-.35.34-.64.46-.86l.13-.23L8,27.81c-1,.23-1.84.41-2.4.55l-.52.12c-.25.56-.51,1.13-.77,1.69s-.59,1.33-.87,2l-.25.59L2.5,34.32c-.13.34-.27.67-.41,1l-.18-.07c.1-.3.19-.6.28-.9.18-.59.37-1.19.58-1.77L3,32c.24-.67.48-1.36.74-2l.11-.29c.29-.76.58-1.56.9-2.33s.67-1.65,1.07-2.6C6.51,23,7.28,21.3,8,19.64l0-.06c.25-.57.52-1.14.78-1.69.13-.29.27-.57.4-.86l1.2-2.54c.83-1.74,1.71-3.49,2.48-5l2.22-4.37L15.19,5a1.5,1.5,0,0,1,.62-.72,1.36,1.36,0,0,1,.49-.12,1,1,0,0,1,.45.12,1.27,1.27,0,0,1,.5.47l.12.22.84,1.73c.42.85.83,1.72,1.21,2.53l.51,1.06c.62,1.32,1.26,2.68,1.85,4.05l.2.47-7.6,3.92c-1.33.68-2.45,1.26-3.57,1.87l-1.76,1-.87.5-.11.07c-.38.78-.79,1.64-1.24,2.59l1.32-.57.7-.3c.46-.19.94-.4,1.42-.58.69-.27,1.41-.55,2.15-.81.36-.14.72-.26,1.09-.39l1.08-.37c1.76-.58,3.12-1,4.41-1.33,1.72-.46,3.15-.79,4.51-1l.35-.06,2.06,4.44c.24.5.46,1,.68,1.52l.24.57.92,2.08c.54,1.24,1.16,2.72,1.74,4.21l0,0c.4,1.06.82,2.14,1.17,3.24l1.87-.6s-.5-2-.7-2.55c-.08-.22-.36-1.27-.78-2.83-.13-.48-.27-1-.43-1.6l-1.32-3.05L27.26,20l-1-2.15c-.47-1.05-.95-2.14-1.45-3.23l-2.4-5.37-2.09-4.7C19.25,2.06,18.5.29,18.38,0H14.29L8.86,11.76l-.44,1c-.26.58-.53,1.17-.79,1.76-.14.3-.27.61-.41.91-.27.59-.55,1.2-.81,1.8-.17.4-.35.8-.52,1.19s-.44,1-.64,1.45-.31.73-.46,1.09-.42.94-.6,1.39-.31.73-.46,1.08-.34.78-.48,1.15c-.28.68-.54,1.31-.79,1.89l-.59,1.46-.53,1.27h0C.67,31.67.17,33.69,0,34.66l2,.88h.06l3.64.26c.07-.25.18-.61.33-1.06C6.35,33.8,6.78,32.67,7.22,31.63Z"/><path class="cls-1" d="M5.4,16.76c.27-.65.57-1.31.85-2,.11-.27.23-.53.35-.8.27-.59.54-1.18.82-1.77.15-.31.3-.63.44-.94.42-.87.84-1.71,1.25-2.53l0-.07c.39-.79.81-1.6,1.25-2.41s.82-1.5,1.17-2.13C12.78,2,13.76.45,14.05,0H12.2A98.94,98.94,0,0,0,6.39,13c-.77,2.23-1.84,5.28-2.82,8.4.21-.57.45-1.2.74-1.94C4.69,18.47,5.05,17.59,5.4,16.76Z"/><path class="cls-1" d="M21,4.25c.72,1.32,1.53,2.91,2.36,4.58.13.29.27.57.42.86.28.57.57,1.16.84,1.76.44,1,.87,1.87,1.25,2.73l1.21,2.75c.25.59.49,1.19.73,1.76.12.31.25.63.38.93.26.65.5,1.28.73,1.89-.21-.74-.42-1.49-.64-2.24C27.66,17.1,26.67,14.93,26,13c-.48-1.44-1.06-2.74-1.51-3.81A65.15,65.15,0,0,0,20.05,0H18.6c.12.18.34.54.64,1.06C19.65,1.77,20.28,2.88,21,4.25Z"/><path class="cls-1" d="M18.31,9.73l-2-4.07-.94,1.89L14.07,10l-2.52,5c-.77,1.53-1.58,3.17-2.48,5-.25.49-.49,1-.75,1.53l.54-.37c.51-.34,1-.69,1.7-1.1L12.41,19c.69-1.84,1.82-4.6,3.26-8.66.29-.81.82-.88,1.15-.1.21.52,1,2.62,1.89,5.11l1.85-1C19.88,12.89,19.15,11.39,18.31,9.73Z"/><path class="cls-1" d="M5.45,27.63l-.09.19c-.07.15-.13.29-.2.43l.36-.09c.56-.15,1.31-.33,2.39-.59.82-.19,2.05-.47,3.41-.73s2.58-.49,3.93-.71c2.53-.42,5.24-.75,7.43-.93,1-.08,1.79-.13,2.47-.16l.51,0-.91-1.81c-.47-.95-1-1.93-1.43-2.91-.57.11-1.19.24-1.87.4s-1.46.34-2.21.53l-1.92.51-.29.08-2.19.63-1.09.33-1.1.33-.56.18-1.62.51-2.18.7-.69.23-.39.14L6.66,25l0,.06C6.19,26,5.81,26.85,5.45,27.63Z"/><path class="cls-1" d="M9.33,27.88c-.1.22-.24.53-.38.9-.39,1-.8,2.09-1.11,3.08S7.2,34.06,7,35c0,.16-.07.32-.1.46L9.25,34s.09-3.94.24-4.53c.06-.22.21-1,.41-2.07l-.41.08Z"/><path class="cls-1" d="M30.13,34.68,30,34.33c-.32-.74-.61-1.42-.91-2.07l-1-2.06-2.2-4.63-.75,0c-.49,0-1.39,0-2.45.12h-.19c.16.29.39.74.67,1.3.35.71,1.06,2.15,1.74,3.76.59,1.4,1.12,2.83,1.45,3.91.12.39.21.73.29,1l3.74-.31v0C30.32,35.15,30.23,34.92,30.13,34.68Z"/></g></g></svg>